<svg width="25" height="25" viewBox="0 0 25 25" fill="none" xmlns="http://www.w3.org/2000/svg">
<path fill-rule="evenodd" clip-rule="evenodd" d="M19.2891 21.9809H2.58596C1.17971 21.9809 0.0328369 20.9471 0.0328369 19.6721V8.25883C0.0328369 6.98824 1.17815 5.94853 2.58596 5.94853H19.2891C20.6969 5.94853 21.8438 6.98824 21.8438 8.25883V19.6721C21.8422 20.9471 20.6969 21.9809 19.2891 21.9809V21.9809ZM1.55471 9.43236V18.5662L3.69377 20.6721H18.2719L20.3453 18.6353V9.5L18.2719 7.25883H3.69377L1.55471 9.43236Z" fill="black"/>
<path fill-rule="evenodd" clip-rule="evenodd" d="M22.2625 2.98971H4.76095L4.7547 4.36618H20.7125L23.4859 7.03383V16.0838L24.8859 16.0603V5.38677C24.8859 4.10736 23.6891 3.01324 22.2625 2.98971V2.98971Z" fill="black"/>
<path fill-rule="evenodd" clip-rule="evenodd" d="M3.125 13.2353H4.61406V14.6824H3.125V13.2353Z" fill="black"/>
<path fill-rule="evenodd" clip-rule="evenodd" d="M17.1875 13.2353H18.725V14.6368H17.1875V13.2353Z" fill="black"/>
<path fill-rule="evenodd" clip-rule="evenodd" d="M7.8125 11.7647H9.32656V13.1897H7.8125V11.7647Z" fill="black"/>
<path fill-rule="evenodd" clip-rule="evenodd" d="M14.0625 14.7059H15.6V16.1309H14.0625V14.7059Z" fill="black"/>
<path fill-rule="evenodd" clip-rule="evenodd" d="M12.5 8.84706H10.9859V10.3397H9.375V11.7191H10.9859V13.2809H9.375V14.6603H10.9859V16.2221H9.375V17.6015H10.9859V19.0721H12.5V17.6015H14.0375V16.2221H12.5V14.6603H14.0375V13.2809H12.5V11.7191H14.0375V10.3397H12.5V8.84706Z" fill="black"/>
</svg>
