<svg width="25" height="25" viewBox="0 0 25 25" fill="none" xmlns="http://www.w3.org/2000/svg">
<path d="M20.8333 16.9229C20.8333 16.6152 20.7727 16.3105 20.6549 16.0262C20.5371 15.7419 20.3645 15.4836 20.1468 15.266C19.9292 15.0485 19.6708 14.8759 19.3864 14.7583C19.1021 14.6406 18.7973 14.5801 18.4896 14.5802H6.51042C6.2026 14.5801 5.89776 14.6406 5.61335 14.7584C5.32893 14.8761 5.0705 15.0487 4.85284 15.2664C4.63517 15.4841 4.46254 15.7425 4.3448 16.0269C4.22706 16.3113 4.16654 16.6162 4.16667 16.924V17.525C4.16667 18.4552 4.49896 19.3542 5.10209 20.0615C6.73438 21.9719 9.2198 22.9156 12.4958 22.9156C15.7729 22.9156 18.2594 21.9729 19.8938 20.0625C20.5 19.3548 20.8332 18.4537 20.8333 17.5219V16.9229V16.9229ZM6.50938 16.1427H18.4896C18.9198 16.1427 19.2688 16.4917 19.2688 16.924V17.5229C19.2689 18.0817 19.0694 18.6222 18.7063 19.0469C17.3969 20.5761 15.3479 21.3521 12.4948 21.3521C9.64271 21.3521 7.5948 20.5761 6.28959 19.0469C5.92725 18.6226 5.72817 18.083 5.72813 17.525V16.9229C5.72813 16.4927 6.07709 16.1427 6.50834 16.1427H6.50938Z" fill="black"/>
<path d="M17.7052 7.29376C17.7053 6.19684 17.3592 5.12788 16.716 4.2393C16.0728 3.35071 15.1655 2.68788 14.1235 2.3453C13.0814 2.00272 11.9578 1.99789 10.9129 2.3315C9.8679 2.6651 8.95494 3.32012 8.30417 4.20314C8.22869 4.17923 8.15001 4.16694 8.07083 4.16668H5.46875C5.26155 4.16668 5.06284 4.24899 4.91632 4.3955C4.76981 4.54202 4.6875 4.74073 4.6875 4.94793V10.675C4.68723 11.0514 4.76112 11.4241 4.90496 11.7719C5.04879 12.1197 5.25975 12.4357 5.52578 12.7019C5.79181 12.9681 6.10769 13.1793 6.45537 13.3234C6.80306 13.4675 7.17573 13.5417 7.55208 13.5417H7.8125V13.5375H7.82292C7.9994 13.5378 8.17305 13.4931 8.3275 13.4077C8.48196 13.3224 8.61213 13.1991 8.70576 13.0495C8.79938 12.8999 8.85339 12.7289 8.86267 12.5526C8.87196 12.3764 8.83623 12.2007 8.75884 12.0421C8.68146 11.8835 8.56496 11.7472 8.42034 11.646C8.27572 11.5449 8.10773 11.4822 7.93219 11.4639C7.75666 11.4457 7.57936 11.4724 7.417 11.5416C7.25464 11.6107 7.11257 11.7201 7.00417 11.8594C6.77859 11.7548 6.58769 11.5877 6.45404 11.378C6.3204 11.1683 6.24959 10.9247 6.25 10.6761V10.4167H7.02917C7.425 10.4167 7.79271 10.2896 8.09167 10.075C8.69416 11.0302 9.59078 11.7637 10.6464 12.1649C11.702 12.5661 12.8595 12.6134 13.9443 12.2995C15.0291 11.9857 15.9826 11.3277 16.6609 10.4249C17.3393 9.52198 17.7058 8.42308 17.7052 7.29376V7.29376ZM7.28854 7.18335C7.28702 7.25695 7.28702 7.33058 7.28854 7.40418V8.59272C7.28854 8.66179 7.26111 8.72803 7.21227 8.77686C7.16343 8.8257 7.09719 8.85314 7.02813 8.85314H6.25V5.73022H7.28958V7.18335H7.28854ZM8.85104 7.38647V7.20106C8.87543 6.24246 9.27648 5.33206 9.96734 4.66707C10.6582 4.00208 11.5832 3.63603 12.5421 3.64822C13.5009 3.66042 14.4163 4.04987 15.09 4.73221C15.7638 5.41456 16.1415 6.33486 16.1415 7.29376C16.1415 8.25267 15.7638 9.17297 15.09 9.85532C14.4163 10.5377 13.5009 10.9271 12.5421 10.9393C11.5832 10.9515 10.6582 10.5855 9.96734 9.92046C9.27648 9.25546 8.87543 8.34507 8.85104 7.38647Z" fill="black"/>
</svg>
