<svg width="25" height="25" viewBox="0 0 25 25" fill="none" xmlns="http://www.w3.org/2000/svg">
<path d="M18.75 19.2708C19.6146 19.2708 20.3125 18.5729 20.3125 17.7083C20.3125 16.8437 19.6146 16.1458 18.75 16.1458C17.8854 16.1458 17.1875 16.8437 17.1875 17.7083C17.1875 18.5729 17.8854 19.2708 18.75 19.2708ZM20.3125 9.89582H17.7083V12.5H22.3542L20.3125 9.89582ZM6.24999 19.2708C7.11457 19.2708 7.81249 18.5729 7.81249 17.7083C7.81249 16.8437 7.11457 16.1458 6.24999 16.1458C5.38541 16.1458 4.68749 16.8437 4.68749 17.7083C4.68749 18.5729 5.38541 19.2708 6.24999 19.2708ZM20.8333 8.33332L23.9583 12.5V17.7083H21.875C21.875 19.4375 20.4792 20.8333 18.75 20.8333C17.0208 20.8333 15.625 19.4375 15.625 17.7083H9.37499C9.37499 19.4375 7.97916 20.8333 6.24999 20.8333C4.52082 20.8333 3.12499 19.4375 3.12499 17.7083H1.04166V6.24999C1.04166 5.09374 1.96874 4.16666 3.12499 4.16666H17.7083V8.33332H20.8333ZM3.12499 6.24999V15.625H3.91666C4.48957 14.9896 5.32291 14.5833 6.24999 14.5833C7.17707 14.5833 8.01041 14.9896 8.58332 15.625H15.625V6.24999H3.12499ZM10.4167 7.29166L14.0625 10.9375L10.4167 14.5833V11.9792H5.20832V9.89582H10.4167V7.29166Z" fill="black"/>
</svg>
